<svg width="27" height="31" viewBox="0 0 27 31" fill="none" xmlns="http://www.w3.org/2000/svg">
<path d="M26.4646 5.55264V22.0318C26.4646 24.9193 24.1167 27.2672 21.2292 27.2672C19.8418 27.2634 18.5124 26.7106 17.5314 25.7296C16.5504 24.7486 15.9976 23.4191 15.9937 22.0318C15.9937 19.1589 18.3562 16.811 21.2292 16.811C22.4542 16.811 23.5479 17.2339 24.4375 17.9339V9.25681L11.0062 13.0776V24.8464C11.0024 26.2337 10.4496 27.5631 9.46857 28.5441C8.48757 29.5251 7.15815 30.078 5.77082 30.0818C2.88332 30.0818 0.5354 27.7339 0.5354 24.8464C0.5354 21.9735 2.88332 19.6256 5.77082 19.6256C6.98123 19.6256 8.07498 20.0485 8.96457 20.7339V7.84222C8.96457 5.69847 10.2625 4.03597 12.3187 3.48181L20.7479 1.17764C22.4541 0.710974 23.8979 0.871391 24.9187 1.65889C25.9542 2.43181 26.4646 3.74431 26.4646 5.55264Z" fill="black"/>
</svg>
